Coordinates
version=1
nRows=20
nColumns=38
inDegrees=no

Units are S.I. units (second, meters, Newtons, ...)
If the header above contains a line with 'inDegrees', this indicates whether rotational values are in degrees (yes) or radians (no).

endheader
time	pelvis_tilt	pelvis_list	pelvis_rotation	pelvis_tx	pelvis_ty	pelvis_tz	hip_flexion_r	hip_adduction_r	hip_rotation_r	knee_angle_r	ankle_angle_r	subtalar_angle_r	mtp_angle_r	hip_flexion_l	hip_adduction_l	hip_rotation_l	knee_angle_l	ankle_angle_l	subtalar_angle_l	mtp_angle_l	lumbar_extension	lumbar_bending	lumbar_rotation	arm_flex_r	arm_add_r	arm_rot_r	elbow_flex_r	pro_sup_r	wrist_flex_r	wrist_dev_r	arm_flex_l	arm_add_l	arm_rot_l	elbow_flex_l	pro_sup_l	wrist_flex_l	wrist_dev_l
0.51	-0.311758	1.34643	-1.4215	0.784836	1.01409	1.00902	-0.523599	0.0860583	0.0552965	0.0566083	-0.0815433	0	0	0.267705	-0.22729	-0.52673	0.777116	0.0268415	0	0	-0.483108	0.0407258	0.309746	-0.259743	-0.339913	0.279884	0.663059	0.919074	0	0	0.0664842	-0.304122	1.27817	0.433682	0.798076	0	0
0.52	-0.286773	1.31747	-1.44244	0.78419	1.00169	1.0099	-0.523599	0.085028	0.0517068	0.0624481	-0.0761056	0	0	0.23297	-0.222599	-0.518529	0.791498	0.0221303	0	0	-0.48573	0.0418847	0.312524	-0.262845	-0.330592	0.283801	0.653632	0.917588	0	0	0.064942	-0.308566	1.27437	0.423875	0.796576	0	0
0.53	-0.285525	1.31038	-1.45084	0.78328	0.989851	1.00953	-0.523599	0.079957	0.038325	0.119669	-0.036651	0	0	0.215315	-0.217211	-0.509716	0.793608	0.017109	0	0	-0.492364	0.0355009	0.320459	-0.261928	-0.330035	0.29396	0.654702	0.89953	0	0	0.0662834	-0.308432	1.26499	0.424756	0.802485	0	0
0.54	-0.28126	1.30918	-1.46051	0.782442	0.97733	1.00896	-0.523599	0.0737156	0.0340705	0.169755	-0.0211512	0	0	0.203664	-0.212684	-0.510526	0.795638	0.0140857	0	0	-0.48957	0.0283882	0.323512	-0.258809	-0.324371	0.301149	0.646917	0.89378	0	0	0.0643915	-0.308738	1.25587	0.423474	0.803194	0	0
0.55	-0.265289	1.3071	-1.48003	0.781808	0.964742	1.00899	-0.523599	0.0651361	0.0332662	0.220762	-0.0102478	0	0	0.191046	-0.208579	-0.525738	0.795356	0.00199994	0	0	-0.488166	0.0186191	0.323338	-0.253896	-0.3177	0.309057	0.637406	0.887473	0	0	0.0630556	-0.309785	1.24625	0.422019	0.803403	0	0
0.56	-0.239491	1.30502	-1.50545	0.781398	0.95221	1.00951	-0.523599	0.0563458	0.0353468	0.27408	-0.00442253	0	0	0.180972	-0.20371	-0.540338	0.79406	-0.0234836	0	0	-0.487237	0.00717897	0.31864	-0.247565	-0.309909	0.317827	0.626953	0.880012	0	0	0.0630111	-0.312314	1.23785	0.421168	0.802901	0	0
0.57	-0.211033	1.30519	-1.52813	0.781365	0.939822	1.01013	-0.523599	0.0499309	0.0368329	0.329285	-0.00589086	0	0	0.175934	-0.195534	-0.533268	0.790862	-0.0522701	0	0	-0.484411	-0.00310116	0.30977	-0.241713	-0.301126	0.323834	0.617333	0.872924	0	0	0.0649748	-0.315937	1.23327	0.420659	0.799663	0	0
0.58	-0.183679	1.3096	-1.5456	0.781718	0.927418	1.01057	-0.507999	0.0456897	0.0357372	0.386262	-0.0175636	0	0	0.176734	-0.1839	-0.508624	0.788448	-0.0684005	0	0	-0.47737	-0.01109	0.298959	-0.237372	-0.29172	0.326676	0.607856	0.867627	0	0	0.0686091	-0.319096	1.23238	0.418546	0.796191	0	0
0.59	-0.152689	1.31841	-1.56427	0.78238	0.914858	1.01077	-0.478236	0.0408942	0.0297644	0.448814	-0.0344259	0	0	0.182778	-0.170468	-0.482237	0.789576	-0.0753915	0	0	-0.464797	-0.0184702	0.286091	-0.231918	-0.281635	0.332117	0.593859	0.861797	0	0	0.0724848	-0.322199	1.23449	0.415177	0.792615	0	0
0.6	-0.119616	1.32619	-1.58387	0.783255	0.9023	1.01123	-0.446404	0.0361039	0.0254309	0.515184	-0.0579314	0	0	0.186731	-0.158806	-0.465686	0.793448	-0.0808297	0	0	-0.453061	-0.0250714	0.273245	-0.226888	-0.272381	0.338714	0.579534	0.854946	0	0	0.0780874	-0.325904	1.24094	0.413076	0.790213	0	0
0.61	-0.0856786	1.33341	-1.60364	0.784167	0.88983	1.01191	-0.412196	0.0320146	0.0245903	0.583656	-0.0902414	0	0	0.188064	-0.148432	-0.456433	0.796843	-0.0863856	0	0	-0.441661	-0.0313941	0.260836	-0.221454	-0.26353	0.347536	0.563872	0.846486	0	0	0.0855622	-0.330944	1.25139	0.413199	0.787186	0	0
0.62	-0.0507741	1.33962	-1.62397	0.785186	0.87749	1.01264	-0.377086	0.0282553	0.025764	0.650921	-0.128756	0	0	0.18578	-0.138068	-0.450063	0.797995	-0.0892321	0	0	-0.431667	-0.0372377	0.249335	-0.218227	-0.256268	0.354444	0.552028	0.837922	0	0	0.0949299	-0.337784	1.2644	0.417313	0.7842	0	0
0.63	-0.0131727	1.3462	-1.6469	0.786346	0.865308	1.01319	-0.341889	0.0242153	0.0257162	0.712071	-0.172972	0	0	0.182011	-0.12724	-0.445492	0.79647	-0.0894509	0	0	-0.421404	-0.043001	0.238862	-0.217496	-0.25068	0.358748	0.544259	0.829814	0	0	0.106054	-0.345599	1.27986	0.424046	0.781829	0	0
0.64	0.0261737	1.3529	-1.67253	0.787362	0.853481	1.01357	-0.305806	0.0208996	0.0268923	0.770814	-0.219984	0	0	0.177534	-0.117073	-0.442859	0.792763	-0.0896966	0	0	-0.411497	-0.0494273	0.230034	-0.2182	-0.246179	0.360349	0.539958	0.822867	0	0	0.119347	-0.35419	1.29696	0.432438	0.780553	0	0
0.65	0.0678642	1.35904	-1.70104	0.788238	0.842008	1.0139	-0.268838	0.0183085	0.0289508	0.828592	-0.269431	0	0	0.172437	-0.107232	-0.441294	0.787877	-0.090313	0	0	-0.402743	-0.0564013	0.222096	-0.220226	-0.242731	0.359168	0.539282	0.817752	0	0	0.134492	-0.363705	1.31412	0.442864	0.779271	0	0
0.66	0.110729	1.36418	-1.73172	0.789083	0.830843	1.01429	-0.230934	0.015828	0.0315139	0.885193	-0.318798	0	0	0.166577	-0.0974664	-0.440729	0.7836	-0.0901328	0	0	-0.395523	-0.0635173	0.215135	-0.223671	-0.240983	0.355603	0.542552	0.815099	0	0	0.150931	-0.372749	1.33003	0.453543	0.77667	0	0
0.67	0.152864	1.36797	-1.76304	0.789948	0.820001	1.01477	-0.192059	0.0133118	0.0346995	0.941165	-0.355662	0	0	0.159689	-0.0878852	-0.440827	0.780913	-0.0887184	0	0	-0.39048	-0.0705273	0.209589	-0.228461	-0.24125	0.349371	0.550017	0.814247	0	0	0.168375	-0.380452	1.34347	0.463182	0.774901	0	0
0.68	0.190151	1.37035	-1.7904	0.79075	0.809409	1.01533	-0.153582	0.0119054	0.0385176	0.994722	-0.372927	0	0	0.151288	-0.0789756	-0.440657	0.779019	-0.0853275	0	0	-0.387456	-0.0767677	0.205188	-0.234212	-0.243022	0.341045	0.560591	0.814604	0	0	0.186899	-0.387377	1.35594	0.472195	0.774647	0	0
0.69	0.221348	1.37139	-1.81209	0.791452	0.798981	1.01604	-0.117634	0.0114613	0.0409303	1.04219	-0.371311	0	0	0.140693	-0.0711576	-0.441536	0.776034	-0.0815808	0	0	-0.386254	-0.0820594	0.20152	-0.240231	-0.245801	0.3327	0.572403	0.815864	0	0	0.206245	-0.393628	1.36711	0.480533	0.775399	0	0
0.7	0.244897	1.37165	-1.82705	0.79196	0.788684	1.01689	-0.0835713	0.012322	0.0420953	1.08427	-0.357061	0	0	0.128038	-0.0654864	-0.444109	0.771504	-0.0780629	0	0	-0.386392	-0.0862941	0.199136	-0.246231	-0.248911	0.32373	0.584261	0.81825	0	0	0.226701	-0.399022	1.37904	0.487598	0.777549	0	0
